<svg width="15" height="16" viewBox="0 0 15 16" fill="none" xmlns="http://www.w3.org/2000/svg">
<path d="M7.50027 0.888672C3.57921 0.888672 0.38916 4.06133 0.38916 7.96101C0.38916 11.8607 3.57921 15.0333 7.50027 15.0333C11.4213 15.0333 14.6114 11.8607 14.6114 7.96101C14.6114 4.06133 11.4213 0.888672 7.50027 0.888672ZM1.69452 10.2944C0.927218 9.10346 0.817319 7.80769 0.807373 7.66921C1.22907 6.18798 1.96653 5.43475 2.11224 5.29677C2.89347 5.40458 3.87162 5.44069 4.15954 5.44909C4.12772 5.82843 4.17943 7.01243 5.08946 8.41601C4.93182 8.62521 4.26546 9.54462 3.79752 10.7494C2.45437 10.8918 1.76961 10.3567 1.69452 10.2939V10.2944ZM9.38447 4.02127C9.60476 4.73246 10.2333 6.33932 10.3387 6.60787C9.48641 7.85072 8.42074 8.71127 8.2263 8.8631C7.97915 8.79139 6.6176 8.41305 5.23218 8.34381C4.24557 6.82894 4.30723 5.58263 4.32215 5.40656L6.30332 3.22897C6.58776 3.25766 8.38643 3.45994 9.38496 4.02177L9.38447 4.02127ZM5.16653 1.6963C4.57577 1.92677 3.98301 2.23242 3.527 2.48662C4.11578 2.06278 4.77468 1.73043 5.4838 1.51084C5.30677 1.60332 5.19737 1.67553 5.16653 1.6968V1.6963ZM2.00532 5.17856C1.85614 5.31655 1.18183 5.99609 0.736759 7.35467C0.869036 5.88036 1.48019 4.54106 2.41359 3.49109C2.02173 4.32098 2.00333 5.00893 2.00532 5.17807V5.17856ZM8.76685 11.8088C8.76336 11.5506 8.72557 10.0728 8.33769 8.97784C8.56694 8.79732 9.61471 7.93974 10.4611 6.71123C11.4154 7.01589 12.5352 7.21421 12.77 7.25377C12.8515 7.46595 13.2235 8.51888 13.2275 10.052C12.1011 11.6792 11.3423 12.1831 11.2314 12.2514C9.63709 12.3498 8.91106 11.9092 8.76734 11.8083L8.76685 11.8088ZM13.8814 10.2736L13.3866 10.0278C13.3786 8.43382 12.9898 7.37593 12.9137 7.18355C13.2275 6.41696 13.3567 5.5579 13.393 5.27402C13.4826 5.30369 13.6307 5.3571 13.7973 5.43277C14.1156 6.21419 14.2916 7.06782 14.2916 7.9615C14.2916 8.77359 14.1469 9.55253 13.8814 10.2741V10.2736ZM13.7068 5.21961C13.5512 5.15631 13.4284 5.11674 13.3756 5.10042C12.4696 3.75025 11.4044 2.97476 11.2557 2.87041C11.0767 2.50047 10.7828 2.16565 10.5073 1.90551C11.9236 2.60384 13.0619 3.77943 13.7073 5.21961H13.7068ZM9.99563 1.67899C10.3049 1.92084 10.8132 2.36842 11.0822 2.88228C10.2358 3.22353 9.60775 3.72849 9.44066 3.87043C8.40433 3.29821 6.63351 3.10137 6.32271 3.07022C5.99948 2.40601 5.52806 1.94557 5.3376 1.77593C5.51214 1.67009 5.93881 1.43616 6.53057 1.27542C6.84734 1.23042 7.17058 1.20619 7.49977 1.20619C8.38046 1.20619 9.22235 1.37384 9.99513 1.6785L9.99563 1.67899ZM1.86409 11.7257L1.89542 11.7227L1.84768 11.6208C1.6612 11.2247 1.67562 10.7296 1.69651 10.4952C1.9188 10.6465 2.45685 10.9344 3.3445 10.9344C3.4907 10.9344 3.64685 10.926 3.81194 10.9086C3.88355 11.0263 4.09589 11.3636 4.40023 11.7484C4.74037 12.1782 5.26748 12.7549 5.86571 13.0941C5.79261 13.6975 5.84085 14.1041 5.87019 14.2692C5.7404 14.289 5.447 14.3172 5.04321 14.2584C3.74232 13.7544 2.63438 12.8627 1.86459 11.7267L1.86409 11.7257ZM6.71208 14.6698C6.5082 14.6065 6.24613 14.4923 6.03678 14.2915C6.01688 14.1965 5.94378 13.7796 6.02335 13.1179C6.30779 13.0605 7.57685 12.7687 8.68678 11.9482C8.86133 12.0694 9.48442 12.426 10.7739 12.426C10.9017 12.426 11.0364 12.422 11.1777 12.4146C11.2035 13.2188 10.8882 13.6431 10.8853 13.6471L10.7977 13.7593L10.9514 13.7757C9.93943 14.3721 8.75939 14.7148 7.50027 14.7148C7.23373 14.7148 6.97117 14.699 6.71258 14.6693L6.71208 14.6698Z" fill="#FF4848" stroke="#FF4848" stroke-width="0.691358"/>
</svg>
