<svg width="16" height="15" viewBox="0 0 16 15" fill="none" xmlns="http://www.w3.org/2000/svg">
<path d="M8 0.5C4.14021 0.5 1 3.62309 1 7.46183C1 11.3006 4.14021 14.4237 8 14.4237C11.8598 14.4237 15 11.3006 15 7.46183C15 3.62309 11.8598 0.5 8 0.5ZM2.28497 9.75875C1.52965 8.58644 1.42147 7.31091 1.41168 7.1746C1.82678 5.71651 2.55273 4.97505 2.69615 4.83922C3.46518 4.94535 4.42804 4.98089 4.71147 4.98916C4.68014 5.36257 4.73105 6.52807 5.62685 7.90973C5.47168 8.11566 4.81573 9.0207 4.35511 10.2066C3.03294 10.3469 2.35888 9.82009 2.28497 9.75826V9.75875ZM9.85476 3.58365C10.0716 4.28373 10.6904 5.86548 10.7941 6.12983C9.95511 7.35327 8.90608 8.20037 8.71469 8.34983C8.4714 8.27924 7.13112 7.90681 5.76734 7.83865C4.79615 6.34745 4.85685 5.12061 4.87154 4.9473L6.82175 2.80373C7.10175 2.83197 8.87231 3.03109 9.85524 3.58414L9.85476 3.58365ZM5.70273 1.29501C5.12119 1.52188 4.53769 1.82275 4.08881 2.07298C4.66839 1.65576 5.31699 1.3286 6.01504 1.11245C5.84077 1.20349 5.73308 1.27456 5.70273 1.2955V1.29501ZM2.59091 4.72286C2.44406 4.85869 1.78028 5.52761 1.34217 6.86496C1.47238 5.41369 2.07399 4.09532 2.9928 3.06176C2.60706 3.87868 2.58895 4.55588 2.59091 4.72238V4.72286ZM9.24678 11.2495C9.24336 10.9953 9.20615 9.54064 8.82434 8.46278C9.05 8.28508 10.0814 7.4409 10.9145 6.23158C11.8539 6.53148 12.9563 6.7267 13.1873 6.76565C13.2676 6.9745 13.6338 8.01099 13.6377 9.5202C12.529 11.1219 11.782 11.618 11.6728 11.6852C10.1034 11.7821 9.38874 11.3483 9.24727 11.249L9.24678 11.2495ZM14.2814 9.7383L13.7943 9.49634C13.7865 7.92725 13.4037 6.8859 13.3288 6.69652C13.6377 5.94191 13.765 5.09627 13.8007 4.81682C13.8888 4.84603 14.0347 4.89861 14.1987 4.9731C14.512 5.74231 14.6852 6.5826 14.6852 7.46232C14.6852 8.26171 14.5428 9.02849 14.2814 9.73879V9.7383ZM14.1096 4.76327C13.9564 4.70095 13.8355 4.66201 13.7836 4.64594C12.8917 3.31686 11.8431 2.5535 11.6968 2.45077C11.5206 2.08662 11.2313 1.75702 10.9601 1.50095C12.3542 2.18837 13.4747 3.34559 14.1101 4.76327H14.1096ZM10.4564 1.27797C10.7608 1.51604 11.2611 1.95663 11.5259 2.46246C10.6928 2.79838 10.0745 3.29544 9.91007 3.43517C8.88993 2.87189 7.14678 2.67813 6.84084 2.64746C6.52266 1.99363 6.0586 1.54038 5.87112 1.37339C6.04294 1.26921 6.46294 1.03893 7.04545 0.88071C7.35727 0.836407 7.67546 0.812552 7.99951 0.812552C8.86643 0.812552 9.69518 0.977591 10.4559 1.27749L10.4564 1.27797ZM2.45189 11.1677L2.48273 11.1647L2.43573 11.0645C2.25217 10.6745 2.26636 10.1872 2.28692 9.95641C2.50573 10.1054 3.03538 10.3887 3.90916 10.3887C4.05308 10.3887 4.20678 10.3804 4.3693 10.3634C4.43979 10.4793 4.64881 10.8113 4.94839 11.1901C5.28322 11.6131 5.8021 12.1808 6.39098 12.5148C6.31902 13.1087 6.3665 13.5089 6.39538 13.6715C6.26762 13.691 5.97881 13.7187 5.58133 13.6608C4.30077 13.1647 3.21014 12.2869 2.45238 11.1686L2.45189 11.1677ZM7.22413 14.0658C7.02343 14.0035 6.76545 13.8911 6.55937 13.6934C6.53979 13.5999 6.46783 13.1895 6.54615 12.5381C6.82615 12.4817 8.07539 12.1944 9.16797 11.3867C9.33979 11.506 9.95315 11.857 11.2224 11.857C11.3483 11.857 11.4809 11.8531 11.6199 11.8458C11.6454 12.6374 11.335 13.0552 11.3321 13.059L11.2459 13.1696L11.3972 13.1856C10.401 13.7728 9.23944 14.1101 8 14.1101C7.73762 14.1101 7.47916 14.0946 7.22462 14.0654L7.22413 14.0658Z" fill="white" stroke="white" stroke-width="0.583333"/>
</svg>
