<svg width="10" height="10" viewBox="0 0 10 10" fill="none" xmlns="http://www.w3.org/2000/svg">
<g clip-path="url(#clip0_2417_126060)">
<path d="M5 9.16683C5.54728 9.16754 6.0893 9.06009 6.59492 8.85065C7.10054 8.64121 7.55978 8.33391 7.94625 7.94642C8.33374 7.55994 8.64104 7.1007 8.85048 6.59508C9.05992 6.08947 9.16738 5.54744 9.16667 5.00017C9.16736 4.45289 9.05991 3.91087 8.85047 3.40526C8.64103 2.89964 8.33374 2.4404 7.94625 2.05392C7.55978 1.66642 7.10054 1.35912 6.59492 1.14968C6.0893 0.940244 5.54728 0.83279 5 0.8335C4.45272 0.832802 3.9107 0.94026 3.40509 1.1497C2.89947 1.35914 2.44023 1.66643 2.05375 2.05392C1.66627 2.4404 1.35897 2.89964 1.14953 3.40526C0.940095 3.91087 0.832636 4.45289 0.833334 5.00017C0.832625 5.54744 0.940078 6.08947 1.14952 6.59508C1.35896 7.1007 1.66626 7.55994 2.05375 7.94642C2.44023 8.3339 2.89947 8.64119 3.40509 8.85063C3.9107 9.06007 4.45272 9.16753 5 9.16683Z" stroke="#EEFFA5" stroke-linejoin="round"/>
<path d="M3.33333 5L4.58333 6.25L7.08333 3.75" stroke="#EEFFA5" stroke-linecap="round" stroke-linejoin="round"/>
</g>
<defs>
<clipPath id="clip0_2417_126060">
<rect width="10" height="10" fill="white"/>
</clipPath>
</defs>
</svg>
