<svg width="16" height="17" viewBox="0 0 16 17" fill="none" xmlns="http://www.w3.org/2000/svg">
<g clip-path="url(#clip0_4413_17392)">
<path d="M10.7955 6.76342C10.8572 6.70579 10.907 6.63655 10.9421 6.55965C10.9771 6.48275 10.9967 6.3997 10.9996 6.31524C11.0026 6.23078 10.9889 6.14656 10.9593 6.0674C10.9297 5.98823 10.8849 5.91567 10.8273 5.85386C10.7697 5.79204 10.7005 5.74219 10.6237 5.70713C10.5468 5.67208 10.4639 5.65251 10.3795 5.64955C10.2951 5.6466 10.2109 5.6603 10.1318 5.68989C10.0527 5.71948 9.98022 5.76437 9.91846 5.82201L8.03713 7.57744L6.28311 5.69395C6.16574 5.57365 6.00599 5.5041 5.83804 5.50018C5.67009 5.49626 5.50727 5.55828 5.38443 5.67298C5.26159 5.78767 5.18849 5.94593 5.18076 6.11389C5.17303 6.28184 5.2313 6.44616 5.34308 6.57167L7.09711 8.45451L5.21513 10.2099C5.15119 10.267 5.09928 10.3362 5.06245 10.4137C5.02562 10.4911 5.00462 10.575 5.00068 10.6607C4.99674 10.7463 5.00994 10.8319 5.0395 10.9124C5.06907 10.9928 5.1144 11.0666 5.17284 11.1293C5.23128 11.1919 5.30164 11.2423 5.3798 11.2774C5.45796 11.3125 5.54234 11.3316 5.62798 11.3336C5.71362 11.3356 5.7988 11.3204 5.87851 11.289C5.95821 11.2576 6.03085 11.2106 6.09214 11.1507L7.97347 9.39593L9.72749 11.2788C9.78413 11.3439 9.8533 11.397 9.93087 11.4349C10.0085 11.4728 10.0929 11.4946 10.179 11.4991C10.2652 11.5036 10.3514 11.4907 10.4326 11.4612C10.5137 11.4317 10.588 11.3861 10.6511 11.3272C10.7142 11.2683 10.7649 11.1973 10.8 11.1184C10.8351 11.0395 10.854 10.9543 10.8555 10.8679C10.8571 10.7816 10.8412 10.6958 10.8089 10.6157C10.7766 10.5356 10.7285 10.4628 10.6675 10.4017L8.91414 8.51886L10.7955 6.76342Z" fill="white"/>
<path fill-rule="evenodd" clip-rule="evenodd" d="M0 8.5C0 4.08182 3.58182 0.5 8 0.5C12.4182 0.5 16 4.08182 16 8.5C16 12.9182 12.4182 16.5 8 16.5C3.58182 16.5 0 12.9182 0 8.5ZM8 15.0455C7.14044 15.0455 6.28929 14.8762 5.49516 14.5472C4.70103 14.2183 3.97947 13.7361 3.37166 13.1283C2.76386 12.5205 2.28173 11.799 1.95279 11.0048C1.62385 10.2107 1.45455 9.35956 1.45455 8.5C1.45455 7.64044 1.62385 6.78929 1.95279 5.99516C2.28173 5.20103 2.76386 4.47947 3.37166 3.87166C3.97947 3.26386 4.70103 2.78173 5.49516 2.45279C6.28929 2.12385 7.14044 1.95455 8 1.95455C9.73596 1.95455 11.4008 2.64415 12.6283 3.87166C13.8558 5.09918 14.5455 6.76404 14.5455 8.5C14.5455 10.236 13.8558 11.9008 12.6283 13.1283C11.4008 14.3558 9.73596 15.0455 8 15.0455Z" fill="white"/>
</g>
<defs>
<clipPath id="clip0_4413_17392">
<rect width="16" height="16" fill="white" transform="translate(0 0.5)"/>
</clipPath>
</defs>
</svg>
