<svg width="12" height="11" viewBox="0 0 12 11" fill="none" xmlns="http://www.w3.org/2000/svg">
<path d="M1 0.0078125C0.447715 0.0078125 0 0.455528 0 1.00781V9.99243C0 10.5447 0.447715 10.9924 1 10.9924H11C11.5523 10.9924 12 10.5447 12 9.99243V1.00781C12 0.455527 11.5523 0.0078125 11 0.0078125H1ZM10.6154 0.930889C10.8703 0.930889 11.0769 1.13753 11.0769 1.39243C11.0769 1.64733 10.8703 1.85397 10.6154 1.85397H1.38462C1.12971 1.85397 0.923077 1.64733 0.923077 1.39243C0.923077 1.13753 1.12971 0.930889 1.38462 0.930889H10.6154ZM10.0769 2.77704C10.6292 2.77704 11.0769 3.22476 11.0769 3.77704V7.2232C11.0769 7.77548 10.6292 8.2232 10.0769 8.2232H1.92308C1.37079 8.2232 0.923077 7.77548 0.923077 7.2232V3.77704C0.923077 3.22476 1.37079 2.77704 1.92308 2.77704H10.0769ZM1.38462 10.0694C1.12971 10.0694 0.923077 9.86271 0.923077 9.60781C0.923077 9.35291 1.12971 9.14627 1.38462 9.14627H10.6154C10.8703 9.14627 11.0769 9.35291 11.0769 9.60781C11.0769 9.86271 10.8703 10.0694 10.6154 10.0694H1.38462Z" fill="white"/>
<path d="M6.24764 7.30003C6.72588 7.30055 7.1497 7.10919 7.44444 6.75726L6.73724 6.16403C6.61675 6.30735 6.45444 6.37636 6.24764 6.37695C5.7641 6.37695 5.37072 5.98356 5.37072 5.50003C5.36465 4.80572 6.16638 4.37947 6.73761 4.77258L7.25438 4.00772C6.08108 3.19966 4.43542 4.07421 4.44767 5.50006C4.44764 6.49255 5.25512 7.30003 6.24764 7.30003Z" fill="white"/>
</svg>
